<svg xmlns="http://www.w3.org/2000/svg" width="27.34" height="40.043" viewBox="0 0 27.34 40.043">
  <path id="Path_1667" data-name="Path 1667" d="M119.627,109.81c.705-.01,1.411-.025,2.116-.03q1.133-.008,2.267,0a1.251,1.251,0,0,1,1.381,1.378q0,16.484,0,32.967a1.259,1.259,0,0,1-1.386,1.378H99.437a1.256,1.256,0,0,1-1.384-1.379q0-16.484,0-32.967a1.228,1.228,0,0,1,1.272-1.372c1.45-.016,2.9,0,4.351,0a.754.754,0,0,1,.142.028c0,1.454,0,2.908,0,4.355h2.271v-4.343H103.8q.011-1.933.022-3.867c0-.157,0-.313,0-.495h2.308v4.318h.425q1.791,0,3.582,0c.132,0,.264.021.4.032.01.132.029.264.029.4q0,1.785,0,3.57v.393h2.277v-4.348h-2.319c.011-.7.026-1.408.031-2.112.005-.74,0-1.48,0-2.248h2.317v4.294h4.414v-4.293h2.351q0,2.179,0,4.358h-2.286v4.346h2.274ZM102.152,130.36h19.157v-2.25H102.152Zm19.157,3.2H102.166v2.236h19.143Zm0,5.464H102.167v2.236h19.141Zm-19.061-19.571h19.061V117.2H102.247Zm0,5.442H121.31v-2.215H102.247Z" transform="translate(-98.052 -105.46)" fill="#873a8e"/>
</svg>
