<svg xmlns="http://www.w3.org/2000/svg" width="35.89" height="39.888" viewBox="0 0 35.89 39.888">
  <g id="Group_2010" data-name="Group 2010" transform="translate(-2239.367 165.62)">
    <path id="Path_1646" data-name="Path 1646" d="M2263.319-125.732h-17.964c0-.231,0-.437,0-.644-.031-2.241-.009-4.484-.112-6.722a11.351,11.351,0,0,0-1.872-5.663c-.41-.638-.818-1.28-1.269-1.889a14.423,14.423,0,0,1-2.733-9.049,15.951,15.951,0,0,1,12.816-15.593A15.937,15.937,0,0,1,2271-152.573a5.913,5.913,0,0,0,.92,2.321c1.008,1.511,1.965,3.057,2.937,4.592a1.847,1.847,0,0,1-.914,2.928c-.647.28-1.289.578-1.954.807a.891.891,0,0,0-.7,1.023c.047,1.658.02,3.319.016,4.978a4.016,4.016,0,0,1-4.259,4.243c-1.216,0-2.431,0-3.73,0v5.948Zm-12-19.448c.26.179.522.381.8.549.447.266,1.081.405,1.315.792a3.864,3.864,0,0,1,.185,1.606.555.555,0,0,0,.617.577c.724.006,1.448,0,2.172,0a.568.568,0,0,0,.636-.613,11.528,11.528,0,0,1,.13-1.369.783.783,0,0,1,.339-.448c.5-.322,1.021-.622,1.551-.9a.772.772,0,0,1,.553-.065,12.152,12.152,0,0,1,1.249.573.559.559,0,0,0,.843-.248c.357-.629.721-1.253,1.087-1.877a.546.546,0,0,0-.185-.819c-.378-.26-.77-.5-1.122-.8a.77.77,0,0,1-.234-.507,16.722,16.722,0,0,1,.008-1.791.94.94,0,0,1,.273-.593,11.171,11.171,0,0,1,1.077-.766.545.545,0,0,0,.183-.819c-.365-.624-.73-1.249-1.085-1.878a.565.565,0,0,0-.847-.244,11.854,11.854,0,0,1-1.2.551.846.846,0,0,1-.6-.054,15.068,15.068,0,0,1-1.507-.869.94.94,0,0,1-.388-.525,9.4,9.4,0,0,1-.125-1.316.557.557,0,0,0-.637-.6c-.724.008-1.448,0-2.172,0a.545.545,0,0,0-.613.574,13.658,13.658,0,0,1-.125,1.369.829.829,0,0,1-.344.488c-.5.323-1.022.618-1.553.891a.771.771,0,0,1-.551.062,13.515,13.515,0,0,1-1.249-.573.565.565,0,0,0-.844.251c-.355.63-.719,1.255-1.08,1.881a.542.542,0,0,0,.189.817,3.8,3.8,0,0,0,.393.268c.747.364.915.893.969,1.761a2.139,2.139,0,0,1-1.311,2.388c-.428.206-.426.554-.2.935.317.53.62,1.067.93,1.6.364.626.47.659,1.135.35Z" fill="#873a8e"/>
    <path id="Path_1647" data-name="Path 1647" d="M2367.59-40.33a2.981,2.981,0,0,1-3.022,2.969,2.99,2.99,0,0,1-2.948-3.044,2.994,2.994,0,0,1,3-2.943A2.988,2.988,0,0,1,2367.59-40.33Z" transform="translate(-109.273 -109.29)" fill="#873a8e"/>
  </g>
</svg>
