<svg xmlns="http://www.w3.org/2000/svg" width="28.535" height="31.457" viewBox="0 0 28.535 31.457">
  <g id="Group_1924" data-name="Group 1924" transform="translate(-600.811 -311.156)">
    <path id="Path_1668" data-name="Path 1668" d="M622.3,322.711v.31c0,5.961-.01,11.923.01,17.884a1.667,1.667,0,0,1-1.719,1.707q-9.038-.039-18.075,0a1.648,1.648,0,0,1-1.7-1.685q.025-14.02,0-28.039a1.659,1.659,0,0,1,1.72-1.732q9.038.039,18.076,0a1.63,1.63,0,0,1,1.7,1.693c-.03.627-.015,1.256,0,1.884a.66.66,0,0,1-.221.527q-4.184,4.171-8.352,8.358a1.96,1.96,0,0,0-.437.718c-.416,1.192-.8,2.394-1.2,3.594a1.523,1.523,0,0,0-.087.4.735.735,0,0,0,.975.764q2.016-.648,4.02-1.331a1.385,1.385,0,0,0,.485-.347q2.254-2.24,4.495-4.493a2.172,2.172,0,0,0,.207-.286Z" fill="#873a8e"/>
    <path id="Path_1669" data-name="Path 1669" d="M712.368,349.134c.294-.849.564-1.638.843-2.423a.61.61,0,0,1,.162-.193q5.2-5.186,10.406-10.37c.052-.052.108-.1.143-.131l1.6,1.6c-.052.056-.126.142-.205.222q-5.137,5.138-10.279,10.272a1.374,1.374,0,0,1-.5.31C713.839,348.665,713.133,348.885,712.368,349.134Z" transform="translate(-98.446 -21.938)" fill="#873a8e"/>
    <path id="Path_1670" data-name="Path 1670" d="M820.2,317.737c.264-.256.538-.538.829-.8a1.172,1.172,0,0,1,1.567.033,1.1,1.1,0,0,1,.067,1.548c-.266.3-.565.571-.828.834Z" transform="translate(-193.606 -4.85)" fill="#873a8e"/>
  </g>
</svg>
