<svg xmlns="http://www.w3.org/2000/svg" width="30.9" height="30.914" viewBox="0 0 30.9 30.914">
  <g id="Group_1893" data-name="Group 1893" transform="translate(-2018.49 1818.25)">
    <path id="Path_1656" data-name="Path 1656" d="M2018.49-1664.448v-15.215a.805.805,0,0,0,.045-.11,2.714,2.714,0,0,1,2.862-2.245h20.128a2.726,2.726,0,0,1,2.927,2.915q0,7.046,0,14.093a2.728,2.728,0,0,1-2.927,2.916h-10.351q-4.949,0-9.9,0a2.725,2.725,0,0,1-2.649-1.864C2018.575-1664.119,2018.536-1664.284,2018.49-1664.448Zm6.611-9.419c.985,0,1.97,0,2.955,0a.914.914,0,0,0,1-.99q0-1.719,0-3.438a.917.917,0,0,0-1.014-1.005q-2.91,0-5.82,0a.917.917,0,0,0-1.014,1q0,1.7,0,3.407a.922.922,0,0,0,1.029,1.021Q2023.669-1673.865,2025.1-1673.867Zm0,9.057c.985,0,1.969,0,2.954,0a.916.916,0,0,0,1-.9.917.917,0,0,0-1.014-.913q-2.909,0-5.818,0a.919.919,0,0,0-1.015.912.923.923,0,0,0,1.029.9Q2023.669-1664.808,2025.1-1664.81Zm14.2-12.679c.5,0,1,.006,1.506,0a.9.9,0,0,0,.926-.909.9.9,0,0,0-.935-.9q-1.476-.009-2.952,0a.908.908,0,0,0-.941.893.91.91,0,0,0,.95.915C2038.338-1677.485,2038.82-1677.489,2039.3-1677.49Zm.049,1.812c-.492,0-.984,0-1.476,0a.914.914,0,0,0-.97.9.908.908,0,0,0,.951.914q1.461.008,2.922,0a.907.907,0,0,0,.955-.91.911.911,0,0,0-.967-.9C2040.3-1675.681,2039.823-1675.678,2039.352-1675.678ZM2023-1668.433c.311,0,.622.008.933,0a.906.906,0,0,0,.9-.907.9.9,0,0,0-.9-.9c-.6-.01-1.2-.01-1.806,0a.905.905,0,0,0-.911.891.909.909,0,0,0,.918.916C2022.417-1668.427,2022.708-1668.433,2023-1668.433Zm5.454-1.81c-.3,0-.6-.007-.9,0a.909.909,0,0,0-.908.9.9.9,0,0,0,.891.911q.918.019,1.836,0a.9.9,0,0,0,.893-.909.906.906,0,0,0-.906-.9C2029.055-1670.25,2028.754-1670.244,2028.453-1670.244Zm5.432,1.81c.3,0,.6.007.9,0a.907.907,0,0,0,.908-.9.9.9,0,0,0-.922-.912q-.888-.012-1.776,0a.906.906,0,0,0-.923.91.911.911,0,0,0,.936.9C2033.3-1668.428,2033.594-1668.433,2033.885-1668.433Z" transform="translate(0 -125.244)" fill="#873a8e"/>
    <path id="Path_1657" data-name="Path 1657" d="M2065.067-1818.25c.163.047.329.085.489.141a2.492,2.492,0,0,1,1.612,1.483c.285.778.475,1.591.716,2.425-.608.165-1.176.32-1.744.472q-8.524,2.285-17.049,4.566a2.586,2.586,0,0,1-.652.086c-1.911.006-3.822,0-5.733,0h-.318a2.753,2.753,0,0,1,1.859-3.8q8.074-2.159,16.147-4.323c1.271-.34,2.543-.673,3.814-1.01a.286.286,0,0,0,.073-.048Z" transform="translate(-21.763)" fill="#873a8e"/>
    <path id="Path_1658" data-name="Path 1658" d="M2342.938-1692.487v-.352c0-1.789-.011-3.578,0-5.367a4.579,4.579,0,0,0-1.62-3.676c-.036-.031-.066-.069-.128-.134l2.972-.8c.033.087.069.166.091.248q.847,3.154,1.691,6.31a2.724,2.724,0,0,1-1.989,3.5C2343.633-1692.664,2343.3-1692.583,2342.938-1692.487Z" transform="translate(-296.675 -106.124)" fill="#873a8e"/>
    <path id="Path_1659" data-name="Path 1659" d="M2225.7-1746.258l.468,1.744c-.645.176-1.271.35-1.9.518-1.252.335-2.5.673-3.757,1a3.289,3.289,0,0,1-.8.107c-2.123.009-4.246,0-6.381-.051Z" transform="translate(-179.127 -66.185)" fill="#873a8e"/>
    <path id="Path_1660" data-name="Path 1660" d="M2079.12-1625.613v1.774h-4.188v-1.774Z" transform="translate(-51.889 -177.099)" fill="#873a8e"/>
  </g>
</svg>
