<svg id="Group_5670" data-name="Group 5670" xmlns="http://www.w3.org/2000/svg" width="20.171" height="19.858" viewBox="0 0 20.171 19.858">
  <path id="Path_5682" data-name="Path 5682" d="M13.309,57.75h-4.9a.238.238,0,1,0,0,.476h4.9a.238.238,0,1,0,0-.476Z" transform="translate(-6.608 -40.594)" fill="#0d9247"/>
  <path id="Path_5683" data-name="Path 5683" d="M20.175,51.932H17.284a.238.238,0,1,0,0,.476h2.891a.238.238,0,1,0,0-.476Z" transform="translate(-12.664 -36.624)" fill="#0d9247"/>
  <path id="Path_5684" data-name="Path 5684" d="M8.409,51.933a.238.238,0,1,0,0,.476H9.823a.238.238,0,0,0,0-.476Z" transform="translate(-6.608 -36.625)" fill="#0d9247"/>
  <path id="Path_5685" data-name="Path 5685" d="M24.863,46.116h-.708a.238.238,0,0,0,0,.476h.708a.238.238,0,0,0,0-.476Z" transform="translate(-17.351 -32.656)" fill="#0d9247"/>
  <path id="Path_5686" data-name="Path 5686" d="M12.69,46.353a.238.238,0,0,0-.238-.238H8.409a.238.238,0,0,0,0,.476h4.043A.238.238,0,0,0,12.69,46.353Z" transform="translate(-6.608 -32.655)" fill="#0d9247"/>
  <path id="Path_5687" data-name="Path 5687" d="M8.409,19.917h4.9a.238.238,0,0,0,0-.476h-4.9a.238.238,0,1,0,0,.476Z" transform="translate(-6.608 -14.454)" fill="#0d9247"/>
  <path id="Path_5688" data-name="Path 5688" d="M20.175,13.622H17.284a.238.238,0,0,0,0,.476h2.891a.238.238,0,0,0,0-.476Z" transform="translate(-12.664 -10.484)" fill="#0d9247"/>
  <path id="Path_5689" data-name="Path 5689" d="M8.409,14.1H9.823a.238.238,0,0,0,0-.476H8.409a.238.238,0,1,0,0,.476Z" transform="translate(-6.608 -10.484)" fill="#0d9247"/>
  <path id="Path_5690" data-name="Path 5690" d="M24.863,7.807h-.708a.238.238,0,0,0,0,.476h.708a.238.238,0,1,0,0-.476Z" transform="translate(-17.351 -6.516)" fill="#0d9247"/>
  <path id="Path_5691" data-name="Path 5691" d="M8.409,8.282h4.043a.238.238,0,0,0,0-.476H8.409a.238.238,0,1,0,0,.476Z" transform="translate(-6.608 -6.515)" fill="#0d9247"/>
  <path id="Path_5692" data-name="Path 5692" d="M22.245,9.057H18.382V7.469a.265.265,0,0,0-.07-.169L14.82,3.812a.27.27,0,0,0-.168-.07H3.488a.238.238,0,0,0-.238.238V23.362a.238.238,0,0,0,.238.238H22.245a1.177,1.177,0,0,0,1.176-1.176V10.233A1.177,1.177,0,0,0,22.245,9.057Zm-7.355-4.5,2.678,2.676H15.58a.691.691,0,0,1-.69-.69ZM3.726,4.219H14.413V6.541A1.168,1.168,0,0,0,15.58,7.707h2.325V9.057H12.97a1.178,1.178,0,0,0-1.176,1.176V22.425a1.165,1.165,0,0,0,.236.7h-8.3ZM22.945,22.425a.7.7,0,0,1-.7.7H12.97a.7.7,0,0,1-.7-.7V10.233a.7.7,0,0,1,.7-.7h9.275a.7.7,0,0,1,.7.7V22.425Z" transform="translate(-3.25 -3.742)" fill="#0d9247"/>
  <path id="Path_5693" data-name="Path 5693" d="M42.659,24.915H34.634a.551.551,0,0,0-.551.551v2.359a.551.551,0,0,0,.551.551h8.025a.551.551,0,0,0,.551-.551V25.466A.551.551,0,0,0,42.659,24.915Zm.074,2.91a.074.074,0,0,1-.074.074H34.634a.074.074,0,0,1-.074-.074V25.466a.074.074,0,0,1,.074-.074h8.025a.074.074,0,0,1,.074.074Z" transform="translate(-24.289 -18.189)" fill="#0d9247"/>
  <path id="Path_5694" data-name="Path 5694" d="M36.567,38.311H34.879a.238.238,0,0,0-.238.238v1.629a.238.238,0,0,0,.238.238h1.688a.238.238,0,0,0,.238-.238V38.549A.238.238,0,0,0,36.567,38.311Zm-.238,1.629H35.117V38.787h1.212Z" transform="translate(-24.669 -27.33)" fill="#0d9247"/>
  <path id="Path_5695" data-name="Path 5695" d="M46.968,38.311H45.28a.238.238,0,0,0-.238.238v1.629a.238.238,0,0,0,.238.238h1.688a.238.238,0,0,0,.238-.238V38.549A.238.238,0,0,0,46.968,38.311ZM46.73,39.94H45.518V38.787H46.73V39.94Z" transform="translate(-31.766 -27.33)" fill="#0d9247"/>
  <path id="Path_5696" data-name="Path 5696" d="M57.368,38.311H55.68a.238.238,0,0,0-.238.238v1.629a.238.238,0,0,0,.238.238h1.688a.238.238,0,0,0,.238-.238V38.549A.238.238,0,0,0,57.368,38.311ZM57.13,39.94H55.918V38.787H57.13Z" transform="translate(-38.863 -27.33)" fill="#0d9247"/>
  <path id="Path_5697" data-name="Path 5697" d="M36.567,46.748H34.879a.238.238,0,0,0-.238.238v1.63a.238.238,0,0,0,.238.238h1.688a.238.238,0,0,0,.238-.238v-1.63A.238.238,0,0,0,36.567,46.748Zm-.238,1.63H35.117V47.225h1.212Z" transform="translate(-24.669 -33.087)" fill="#0d9247"/>
  <path id="Path_5698" data-name="Path 5698" d="M46.968,46.748H45.28a.238.238,0,0,0-.238.238v1.63a.238.238,0,0,0,.238.238h1.688a.238.238,0,0,0,.238-.238v-1.63A.238.238,0,0,0,46.968,46.748Zm-.238,1.63H45.518V47.225H46.73v1.153Z" transform="translate(-31.766 -33.087)" fill="#0d9247"/>
  <path id="Path_5699" data-name="Path 5699" d="M57.368,46.748H55.68a.238.238,0,0,0-.238.238v1.63a.238.238,0,0,0,.238.238h1.688a.238.238,0,0,0,.238-.238v-1.63A.238.238,0,0,0,57.368,46.748Zm-.238,1.63H55.918V47.225H57.13Z" transform="translate(-38.863 -33.087)" fill="#0d9247"/>
  <path id="Path_5700" data-name="Path 5700" d="M36.567,55.186H34.879a.238.238,0,0,0-.238.238v1.63a.238.238,0,0,0,.238.238h1.688a.238.238,0,0,0,.238-.238v-1.63A.238.238,0,0,0,36.567,55.186Zm-.238,1.63H35.117V55.662h1.212Z" transform="translate(-24.669 -38.844)" fill="#0d9247"/>
  <path id="Path_5701" data-name="Path 5701" d="M46.968,55.186H45.28a.238.238,0,0,0-.238.238v1.63a.238.238,0,0,0,.238.238h1.688a.238.238,0,0,0,.238-.238v-1.63A.238.238,0,0,0,46.968,55.186Zm-.238,1.63H45.518V55.662H46.73v1.153Z" transform="translate(-31.766 -38.844)" fill="#0d9247"/>
  <path id="Path_5702" data-name="Path 5702" d="M57.368,55.186H55.68a.238.238,0,0,0-.238.238v1.63a.238.238,0,0,0,.238.238h1.688a.238.238,0,0,0,.238-.238v-1.63A.238.238,0,0,0,57.368,55.186Zm-.238,1.63H55.918V55.662H57.13Z" transform="translate(-38.863 -38.844)" fill="#0d9247"/>
  <path id="Path_5703" data-name="Path 5703" d="M10.74,28.234a2.985,2.985,0,1,0-2.985-2.985A2.989,2.989,0,0,0,10.74,28.234Zm0-5.494a2.509,2.509,0,1,1-2.509,2.509A2.512,2.512,0,0,1,10.74,22.739Z" transform="translate(-6.324 -16.38)" fill="#0d9247"/>
  <path id="Path_5704" data-name="Path 5704" d="M15.189,28.812a.438.438,0,0,1-.436-.438.238.238,0,1,0-.476,0,.913.913,0,0,0,.674.879v.053a.238.238,0,0,0,.476,0v-.052a.911.911,0,0,0-.238-1.792.437.437,0,1,1,.438-.438.238.238,0,1,0,.476,0,.912.912,0,0,0-.677-.877v-.052a.238.238,0,0,0-.476,0v.052a.912.912,0,0,0,.238,1.792.437.437,0,1,1,0,.874Z" transform="translate(-10.774 -18.831)" fill="#0d9247"/>
</svg>
