<svg xmlns="http://www.w3.org/2000/svg" width="36" height="34.25" viewBox="0 0 36 34.25">
  <g id="Group_5763" data-name="Group 5763" transform="translate(-1692 -887.375)">
    <g id="Rectangle_2716" data-name="Rectangle 2716" transform="translate(1692 903.625)" fill="none" stroke="#0d9247" stroke-linecap="round" stroke-width="1.5">
      <rect width="36" height="18" stroke="none"/>
      <rect x="0.75" y="0.75" width="34.5" height="16.5" fill="none"/>
    </g>
    <g id="Group_4962" data-name="Group 4962" transform="translate(1702.986 887.375)">
      <g id="Polygon_1" data-name="Polygon 1" fill="#0d9247" stroke-linecap="round">
        <path d="M 12.24015235900879 11.2338752746582 L 1.741032481193542 11.2338752746582 C 1.615122437477112 11.2338752746582 1.551172494888306 11.15525531768799 1.524252533912659 11.10839557647705 C 1.497332453727722 11.06152534484863 1.461652517318726 10.96666526794434 1.525092482566833 10.8579158782959 L 6.774642467498779 1.858665585517883 C 6.837602615356445 1.750745534896851 6.936962604522705 1.734635591506958 6.990592479705811 1.734635591506958 C 7.044222354888916 1.734635591506958 7.143582344055176 1.750745534896851 7.206542491912842 1.858665585517883 L 12.45610237121582 10.85790538787842 C 12.5195426940918 10.96666526794434 12.48385238647461 11.06152534484863 12.45693206787109 11.10838508605957 C 12.43002223968506 11.15525531768799 12.36606216430664 11.2338752746582 12.24015235900879 11.2338752746582 Z" stroke="none"/>
        <path d="M 6.990594863891602 2.976955413818359 L 2.611559867858887 10.48387622833252 L 11.36962127685547 10.48387622833252 L 6.990594863891602 2.976955413818359 M 6.990592479705811 0.9846334457397461 C 7.32601261138916 0.9846334457397461 7.661432266235352 1.15001106262207 7.854372501373291 1.480766296386719 L 13.10392284393311 10.48000621795654 C 13.49281215667725 11.14665603637695 13.01194286346436 11.98387622833252 12.24015235900879 11.98387622833252 L 1.741032600402832 11.98387622833252 C 0.9692420959472656 11.98387622833252 0.488372802734375 11.14665603637695 0.8772621154785156 10.48000621795654 L 6.12681245803833 1.480766296386719 C 6.31975269317627 1.15001106262207 6.655172348022461 0.9846334457397461 6.990592479705811 0.9846334457397461 Z" stroke="none" fill="#0d9247"/>
      </g>
      <line id="Line_69" data-name="Line 69" y2="13.981" transform="translate(6.991 10.985)" fill="none" stroke="#0d9247" stroke-linecap="round" stroke-width="1.5"/>
    </g>
  </g>
</svg>
