<svg xmlns="http://www.w3.org/2000/svg" width="20.281" height="18.651" viewBox="0 0 20.281 18.651">
  <g id="Group_4891" data-name="Group 4891" transform="translate(-378.796 -528)">
    <g id="Group_4891-2" data-name="Group 4891" transform="translate(378.796 528)">
      <path id="Path_5672" data-name="Path 5672" d="M10.862,1.242A1.454,1.454,0,0,0,9.414,2.689V9.934a1.455,1.455,0,0,0,1.448,1.448h8.286A1.458,1.458,0,0,0,20.6,9.934V2.689a1.457,1.457,0,0,0-1.452-1.447Zm0,.966h2.21V7.036a.483.483,0,0,0,.827.342l1.106-1.1,1.109,1.1a.483.483,0,0,0,.824-.342V2.208h2.21a.473.473,0,0,1,.486.481V9.934a.476.476,0,0,1-.486.485H10.862a.472.472,0,0,1-.481-.485V2.689a.469.469,0,0,1,.481-.481Zm3.177,0h1.933V5.87l-.624-.625a.483.483,0,0,0-.685,0l-.625.625Zm-9.381.481a.484.484,0,0,0,0,.967H8.041a.484.484,0,0,0,0-.967Zm.486,1.933a.483.483,0,1,0,0,.966h2.9a.483.483,0,0,0,0-.966Zm.481,1.932a.484.484,0,0,0,0,.967H8.041a.484.484,0,0,0,0-.967Zm.485,1.933a.483.483,0,1,0,0,.966H8.041a.483.483,0,0,0,0-.966ZM2.244,11.133A1.455,1.455,0,0,0,.8,12.581v5.861a1.457,1.457,0,0,0,1.448,1.451h1.3A1.453,1.453,0,0,0,4.98,18.571l2.281-.325a5.146,5.146,0,0,1,2.007.717,5.75,5.75,0,0,0,2.66.909,5.585,5.585,0,0,0,1.529-.4,59.643,59.643,0,0,0,6.854-3.22A1.327,1.327,0,0,0,21,14.635c-.211-.507-.748-.894-1.778-.658-1.308.376-4,1.183-4.522,1.341a1.712,1.712,0,0,0-.827-.937A37.284,37.284,0,0,0,8,11.667a3.866,3.866,0,0,0-2.457.54c-.208.109-.39.215-.555.316a1.453,1.453,0,0,0-1.443-1.39Zm0,.966h1.3a.47.47,0,0,1,.482.482v5.861a.473.473,0,0,1-.482.485h-1.3a.472.472,0,0,1-.481-.485V12.581a.469.469,0,0,1,.481-.482Zm5.5.464a33.254,33.254,0,0,1,5.641,2.657c.353.2.48.484.317.8a.578.578,0,0,1-.852.225L10.337,14.87a.482.482,0,1,0-.449.852c.927.491,1.645.873,2.567,1.374,1.049.6,1.737-.043,2.156-.742.091-.029,2.5-.794,4.887-1.487.346-.1.5-.112.6.114.078.172-.027.3-.326.473a58.822,58.822,0,0,1-6.63,3.115,6.583,6.583,0,0,1-1.244.339A6.031,6.031,0,0,1,9.706,18.1a4.573,4.573,0,0,0-2.581-.812l-2.132.3V13.672a8.068,8.068,0,0,1,.994-.61A3.04,3.04,0,0,1,7.746,12.563Z" transform="translate(-0.796 -1.242)" fill="#0d9247"/>
    </g>
  </g>
</svg>
