<svg xmlns="http://www.w3.org/2000/svg" width="21.004" height="21.002" viewBox="0 0 21.004 21.002">
  <g id="Group_1075" data-name="Group 1075" transform="translate(29 -209)">
    <g id="Group_1074" data-name="Group 1074" transform="translate(-29 209)">
      <path id="Path_1471" data-name="Path 1471" d="M247.477-17.483c0-1.478,0-2.956,0-4.434a1.523,1.523,0,0,1,1.6-1.656q3.219-.024,6.438,0a1.524,1.524,0,0,1,1.589,1.631q.01,4.477,0,8.954a1.545,1.545,0,0,1-1.65,1.657q-3.177.006-6.353,0a1.538,1.538,0,0,1-1.626-1.632C247.473-14.47,247.477-15.977,247.477-17.483Zm8.32.049c0-1.451-.006-2.9,0-4.351,0-.336-.088-.48-.461-.477q-3.05.025-6.1,0c-.335,0-.444.107-.443.441q.015,4.33,0,8.66c0,.411.143.543.547.54q2.965-.022,5.93,0c.42,0,.536-.151.531-.549C255.787-14.59,255.8-16.012,255.8-17.434Z" transform="translate(-247.474 32.329)" fill="#0d9247"/>
      <path id="Path_1472" data-name="Path 1472" d="M390.271-119.889c0,1.478,0,2.956,0,4.434a1.539,1.539,0,0,1-1.666,1.678q-3.134.017-6.268,0a1.56,1.56,0,0,1-1.7-1.7q-.006-4.413,0-8.826a1.564,1.564,0,0,1,1.716-1.72q3.113,0,6.225,0a1.554,1.554,0,0,1,1.689,1.7Q390.275-122.106,390.271-119.889Zm-8.293.018c0,1.436.011,2.872-.008,4.308-.005.373.1.49.482.487q3.007-.025,6.014,0c.394,0,.516-.123.515-.513q-.019-4.287,0-8.574c0-.412-.143-.543-.547-.54q-2.986.021-5.972,0c-.366,0-.5.1-.492.482C381.99-122.772,381.978-121.322,381.978-119.871Z" transform="translate(-369.27 126.025)" fill="#0d9247"/>
      <path id="Path_1473" data-name="Path 1473" d="M252.209-119.035c-1.037,0-2.075,0-3.112,0a1.54,1.54,0,0,1-1.64-1.618q-.009-1.9,0-3.794a1.528,1.528,0,0,1,1.587-1.584q3.219-.01,6.438,0a1.531,1.531,0,0,1,1.6,1.575q.022,1.918,0,3.837a1.535,1.535,0,0,1-1.634,1.585C254.37-119.031,253.289-119.035,252.209-119.035Zm.115-5.674c-1.023,0-2.046.008-3.07,0-.344,0-.483.116-.478.471q.021,1.726,0,3.453c0,.319.09.465.434.463q3.07-.014,6.139,0c.312,0,.431-.123.429-.43q-.011-1.769,0-3.538c0-.312-.116-.423-.428-.419C254.342-124.7,253.333-124.709,252.324-124.709Z" transform="translate(-247.452 126.038)" fill="#0d9247"/>
      <path id="Path_1474" data-name="Path 1474" d="M385.4,44.928c-1.051,0-2.1,0-3.154,0A1.542,1.542,0,0,1,380.6,43.3q-.016-1.875,0-3.75a1.526,1.526,0,0,1,1.6-1.62q3.218-.022,6.435,0a1.522,1.522,0,0,1,1.592,1.624q.008,1.875,0,3.75a1.539,1.539,0,0,1-1.638,1.619C387.528,44.932,386.463,44.928,385.4,44.928Zm.048-5.674c-1.024,0-2.048.01-3.072-.006-.339-.005-.443.116-.438.448q.023,1.749,0,3.5c0,.342.127.443.451.442q3.029-.013,6.058,0c.375,0,.5-.142.5-.5q-.018-1.706,0-3.413c0-.347-.111-.48-.468-.474C387.465,39.265,386.455,39.253,385.445,39.253Z" transform="translate(-369.233 -23.928)" fill="#0d9247"/>
    </g>
  </g>
</svg>
