<svg xmlns="http://www.w3.org/2000/svg" width="21.2" height="15.706" viewBox="0 0 21.2 15.706">
  <g id="Group_4910" data-name="Group 4910" transform="translate(0.1 0.116)">
    <g id="Group_4893" data-name="Group 4893" transform="translate(3.064 0.726)">
      <g id="Group_4892" data-name="Group 4892">
        <path id="Path_5673" data-name="Path 5673" d="M189.212,205.068c0,.072,0,.145-.007.215,0,.036,0,.072-.009.111l-.007.054c0,.009-.011.088,0,.038a.771.771,0,0,0-.014.081l-.02.113c-.016.081-.034.163-.054.242a4.622,4.622,0,0,1-.14.457c-.027.077-.057.151-.088.226s-.007.016,0,0c-.009.018-.016.038-.025.057-.02.047-.043.093-.063.14a5.108,5.108,0,0,1-.513.846c-.032.043.032-.038,0,0-.011.016-.025.032-.038.047-.025.032-.05.061-.077.09-.054.063-.111.124-.17.185a3.408,3.408,0,0,1-.341.307c.057-.045-.027.018-.043.032l-.09.063c-.066.043-.131.081-.2.12-.032.018-.063.034-.095.05-.011.007-.109.047-.07.032l-.07.027c-.036.014-.075.025-.113.036-.068.02-.136.036-.2.05-.025,0-.127.014-.038.007l-.118.009c-.066,0-.133,0-.2,0l-.1-.009c.09,0-.038-.007-.066-.011-.068-.014-.136-.032-.2-.052-.029-.009-.059-.018-.088-.029s-.127-.052-.054-.02a2.635,2.635,0,0,1-.391-.215c-.032-.02-.061-.041-.09-.063l-.045-.034c-.041-.029.041.034,0,0a2.412,2.412,0,0,1-.183-.158,4.032,4.032,0,0,1-.332-.348c-.025-.029-.05-.061-.077-.093-.009-.011-.018-.023-.027-.036.038.047,0,.007,0,0-.054-.072-.106-.147-.158-.222q-.136-.2-.251-.421c-.038-.072-.075-.145-.111-.219-.018-.036-.034-.075-.052-.111-.009-.018-.016-.038-.025-.057.02.045,0,.007-.007-.018a4.826,4.826,0,0,1-.165-.47,4.744,4.744,0,0,1-.113-.47c-.007-.034-.011-.066-.018-.1s-.018-.127-.009-.05c-.009-.081-.018-.165-.023-.249a2.475,2.475,0,0,1,.093-.911c.023-.077.045-.156.075-.231.011-.034.025-.066.038-.1-.023.059,0,.009,0,0,.011-.027.025-.054.038-.081a2.985,2.985,0,0,1,.237-.411c.023-.032.045-.066.07-.1.038-.052.009-.011,0,0,.011-.016.025-.032.036-.045.057-.068.115-.136.179-.2s.106-.1.161-.154c.029-.027.059-.052.09-.077.007-.007.057-.045.023-.02s.029-.023.036-.027a2.723,2.723,0,0,1,.418-.255c.036-.018.072-.036.109-.052l.054-.025c.047-.02-.047.018,0,0,.079-.029.161-.061.242-.086s.156-.045.235-.061l.106-.02c.018,0,.149-.023.079-.014a3.324,3.324,0,0,1,.52-.02c.043,0,.084,0,.127.009l.063.007c.009,0,.075.009.032,0s.023,0,.032,0a.578.578,0,0,1,.061.011l.136.027c.079.018.158.038.235.063.038.011.077.025.115.038l.057.02c.007,0,.084.034.043.016s.02.009.029.014l.054.025.095.045c.079.041.158.086.233.133s.131.088.2.133c0,0,.043.032.014.009s.016.014.023.02l.1.086a3.106,3.106,0,0,1,.337.353c.007.007.045.057.02.023s.014.018.018.025c.023.032.045.063.068.1.047.07.093.142.133.215s.075.14.109.213c.009.018.05.118.025.057.016.043.034.084.047.127a3.021,3.021,0,0,1,.129.486c0,.02.018.131.011.063,0,.036.009.072.011.109.007.093.011.183.011.271a.339.339,0,0,0,.678,0,3.44,3.44,0,0,0-.764-2.139,3.357,3.357,0,0,0-1.847-1.155,3.443,3.443,0,0,0-2.277.265,3.36,3.36,0,0,0-1.524,1.524,3.579,3.579,0,0,0-.287,2.216,5.25,5.25,0,0,0,.818,2.01,3.762,3.762,0,0,0,1.558,1.4,2.349,2.349,0,0,0,2.026-.068,3.99,3.99,0,0,0,1.519-1.5,5.255,5.255,0,0,0,.742-2.041,3.851,3.851,0,0,0,.038-.509.34.34,0,0,0-.68,0Z" transform="translate(-183.131 -201.688)" fill="#0d9247" stroke="#0d9247" stroke-width="0.2"/>
      </g>
    </g>
    <g id="Group_4895" data-name="Group 4895" transform="translate(0 8.792)">
      <g id="Group_4894" data-name="Group 4894">
        <path id="Path_5674" data-name="Path 5674" d="M59.823,561.949v2.887l.339-.339H49.46c-.491,0-.99-.025-1.481,0h-.02l.339.339v-2.607c0-.115,0-.228,0-.344,0-.095.009-.19.018-.283.007-.068,0-.016,0,0l.014-.093c.009-.05.018-.1.029-.151a2.526,2.526,0,0,1,.072-.264c.016-.047.032-.095.05-.142a.589.589,0,0,1,.023-.057c.016-.036.016-.036,0,0,.007-.014.011-.027.018-.041a3.377,3.377,0,0,1,.285-.506l.034-.047s.057-.077.027-.036.029-.038.029-.036c.014-.016.025-.032.038-.045.063-.075.131-.147.2-.217s.138-.129.21-.188a.579.579,0,0,1,.059-.045c-.011.009-.05.036,0,0s.088-.063.133-.093c.079-.052.161-.1.244-.145l.12-.061.068-.032c.014-.007.095-.038.029-.014a3.218,3.218,0,0,1,.628-.181l.077-.014c.075-.011-.05,0,.034,0,.052,0,.1-.011.156-.014.07,0,.14,0,.213-.007h.71c-.079-.034-.161-.066-.24-.1q.987,1.17,1.976,2.338l.278.33a.341.341,0,0,0,.479,0q.98-1.167,1.958-2.335l.278-.332c-.079.034-.161.066-.24.1h.665c.138,0,.274.007.411.018.1.009-.043-.007.018,0l.077.011c.05.009.1.018.151.029.1.023.2.05.294.081.047.016.095.032.142.05l.057.023c-.07-.027.023.009.029.014a2.942,2.942,0,0,1,.267.136c.081.047.161.1.24.151.016.011.118.086.063.043.047.036.093.075.138.113a3.045,3.045,0,0,1,.407.43c-.038-.05-.007-.007,0,0l.052.072.075.111a2.933,2.933,0,0,1,.154.274c.025.05.047.1.07.149s-.027-.075.007.016c.011.027.023.057.032.084a3.1,3.1,0,0,1,.1.321c.014.059.027.12.038.181,0,.02.007.041.011.061s.011.095,0,.034c0,.124.011.251.014.378a.339.339,0,0,0,.678,0,3.489,3.489,0,0,0-1.1-2.532,3.526,3.526,0,0,0-2.417-.931H56.55c-.163,0-.359-.027-.484.1-.077.077-.142.17-.213.253L54.709,560.2l-.879,1.049h.479l-1.273-1.506-.773-.916c-.063-.075-.124-.154-.19-.226a.545.545,0,0,0-.45-.12,5.262,5.262,0,0,0-1.517.14,3.446,3.446,0,0,0-1.65,1.072,3.542,3.542,0,0,0-.812,1.876,7.617,7.617,0,0,0-.023.879v2.385a.345.345,0,0,0,.339.339h10.7c.493,0,.988.014,1.481,0h.02a.345.345,0,0,0,.339-.339v-2.887a.34.34,0,0,0-.68,0Z" transform="translate(-47.62 -558.483)" fill="#0d9247" stroke="#0d9247" stroke-width="0.2"/>
      </g>
    </g>
    <g id="Group_4897" data-name="Group 4897" transform="translate(10.602 0.493)">
      <g id="Group_4896" data-name="Group 4896">
        <path id="Path_5675" data-name="Path 5675" d="M524.843,196.586l-3.163.669-2.561.543c-.531.113-1.065.226-1.6.337l.382.156c-.224-.389-.45-.778-.674-1.169-.018.138-.036.274-.052.411l1.691-1.881,2.693-3c.206-.228.411-.457.615-.685l-.534-.068c.337.586.676,1.171,1.013,1.754q.8,1.394,1.61,2.785l.371.642a.339.339,0,1,0,.586-.341q-.505-.878-1.013-1.754-.8-1.394-1.61-2.785l-.371-.642a.342.342,0,0,0-.534-.068l-1.691,1.881-2.693,3c-.206.228-.411.457-.615.685a.349.349,0,0,0-.052.411c.224.389.45.778.674,1.169a.348.348,0,0,0,.382.156l2.9-.615,2.851-.6,1.567-.332a.34.34,0,0,0-.179-.656Z" transform="translate(-516.601 -191.393)" fill="#0d9247" stroke="#0d9247" stroke-width="0.2"/>
      </g>
    </g>
    <g id="Group_4899" data-name="Group 4899" transform="translate(10.373 5.657)">
      <g id="Group_4898" data-name="Group 4898">
        <path id="Path_5676" data-name="Path 5676" d="M508.235,421.958l-1-1.725-.142-.244a.339.339,0,1,0-.586.341l1,1.725.142.244a.339.339,0,0,0,.586-.341Z" transform="translate(-506.466 -419.822)" fill="#0d9247" stroke="#0d9247" stroke-width="0.2"/>
      </g>
    </g>
    <g id="Group_4901" data-name="Group 4901" transform="translate(15.374 0.093)">
      <g id="Group_4900" data-name="Group 4900">
        <path id="Path_5677" data-name="Path 5677" d="M727.71,174.23l1.167,2.021q.929,1.611,1.861,3.224l.427.742a.339.339,0,0,0,.586-.341l-1.167-2.021q-.929-1.611-1.861-3.224l-.427-.742a.339.339,0,1,0-.585.341Z" transform="translate(-727.666 -173.722)" fill="#0d9247" stroke="#0d9247" stroke-width="0.2"/>
      </g>
    </g>
    <g id="Group_4903" data-name="Group 4903" transform="translate(18.344 1.688)">
      <g id="Group_4902" data-name="Group 4902">
        <path id="Path_5678" data-name="Path 5678" d="M859.53,245.576c.393-.226.784-.452,1.178-.68a.339.339,0,0,0-.341-.586c-.393.226-.784.452-1.178.68a.339.339,0,1,0,.341.586Z" transform="translate(-859.022 -244.266)" fill="#0d9247" stroke="#0d9247" stroke-width="0.2"/>
      </g>
    </g>
    <g id="Group_4905" data-name="Group 4905" transform="translate(17.435 0)">
      <g id="Group_4904" data-name="Group 4904">
        <path id="Path_5679" data-name="Path 5679" d="M819.441,171.231c.253-.375.509-.751.762-1.126a.342.342,0,0,0-.122-.463.346.346,0,0,0-.463.122c-.253.375-.509.751-.762,1.126a.342.342,0,0,0,.122.463.347.347,0,0,0,.464-.122Z" transform="translate(-818.808 -169.597)" fill="#0d9247" stroke="#0d9247" stroke-width="0.2"/>
      </g>
    </g>
    <g id="Group_4907" data-name="Group 4907" transform="translate(18.965 3.675)">
      <g id="Group_4906" data-name="Group 4906">
        <path id="Path_5680" data-name="Path 5680" d="M886.824,332.944l1.356-.1a.339.339,0,0,0,0-.678l-1.356.1a.339.339,0,0,0,0,.678Z" transform="translate(-886.485 -332.168)" fill="#0d9247" stroke="#0d9247" stroke-width="0.2"/>
      </g>
    </g>
    <g id="Group_4909" data-name="Group 4909" transform="translate(12.877 6.38)">
      <g id="Group_4908" data-name="Group 4908">
        <path id="Path_5681" data-name="Path 5681" d="M619.567,452.129v.482c0,.032,0,.061,0,.093s0,.041,0,.061c0-.016.014-.063,0,0-.009.038-.018.079-.029.118,0,.016-.038.1-.025.072s-.029.054-.036.066l-.054.088c-.009.011-.016.025-.025.036.029-.038.007-.009-.014.011s-.047.05-.072.072l-.034.029c-.038.034.041-.029,0,0a1.61,1.61,0,0,1-.19.113c.059-.027-.025.009-.045.016a.851.851,0,0,1-.1.027c-.02,0-.041.009-.059.011,0,0,.054-.007.014,0s-.075,0-.111,0h-.106c-.032,0-.063,0-.1,0-.068,0-.016,0,0,0-.02,0-.041-.007-.059-.011-.038-.009-.079-.02-.115-.032-.02-.007-.081-.036-.029-.011a1.1,1.1,0,0,1-.2-.122c.05.038-.027-.027-.043-.043s-.054-.057-.079-.086c.043.05-.023-.032-.034-.05-.02-.034-.038-.068-.059-.1-.032-.054-.009-.016,0,0l-.02-.057a1.248,1.248,0,0,1-.036-.131c0-.016-.007-.029-.009-.045.009.05,0,.011,0-.018s0-.059,0-.088c-.084.109-.165.217-.249.328l2.075-.439c.1-.02.2-.041.294-.063a.34.34,0,0,0-.181-.656l-2.075.439c-.1.02-.2.041-.294.063a.344.344,0,0,0-.249.328,1.49,1.49,0,0,0,1.474,1.479,1.55,1.55,0,0,0,.977-.289,1.493,1.493,0,0,0,.59-1.04,5.7,5.7,0,0,0,.009-.651.343.343,0,0,0-.339-.339A.354.354,0,0,0,619.567,452.129Z" transform="translate(-617.2 -451.785)" fill="#0d9247" stroke="#0d9247" stroke-width="0.2"/>
      </g>
    </g>
  </g>
</svg>
