<svg xmlns="http://www.w3.org/2000/svg" width="19.181" height="19.181" viewBox="0 0 19.181 19.181">
  <g id="Icon_feather-settings" data-name="Icon feather-settings" transform="translate(-0.9 -0.9)">
    <path id="Path_5725" data-name="Path 5725" d="M18.4,15.952A2.452,2.452,0,1,1,15.952,13.5,2.452,2.452,0,0,1,18.4,15.952Z" transform="translate(-5.461 -5.461)" fill="none" stroke="#0d9247" stroke-linecap="round" stroke-linejoin="round" stroke-width="1.2"/>
    <path id="Path_5726" data-name="Path 5726" d="M16.539,12.943a1.349,1.349,0,0,0,.27,1.488l.049.049a1.636,1.636,0,1,1-2.313,2.313l-.049-.049a1.36,1.36,0,0,0-2.3.964v.139a1.635,1.635,0,0,1-3.269,0v-.074a1.349,1.349,0,0,0-.883-1.234,1.349,1.349,0,0,0-1.488.27l-.049.049a1.636,1.636,0,1,1-2.313-2.313l.049-.049a1.36,1.36,0,0,0-.964-2.3H3.135a1.635,1.635,0,1,1,0-3.269h.074a1.349,1.349,0,0,0,1.234-.883,1.349,1.349,0,0,0-.27-1.488L4.124,6.5A1.636,1.636,0,1,1,6.437,4.189l.049.049a1.349,1.349,0,0,0,1.488.27h.065a1.349,1.349,0,0,0,.817-1.234V3.135a1.635,1.635,0,1,1,3.269,0v.074a1.36,1.36,0,0,0,2.3.964l.049-.049a1.636,1.636,0,1,1,2.313,2.313l-.049.049a1.349,1.349,0,0,0-.27,1.488v.065a1.349,1.349,0,0,0,1.234.817h.139a1.635,1.635,0,0,1,0,3.269h-.074a1.349,1.349,0,0,0-1.234.817Z" fill="none" stroke="#0d9247" stroke-linecap="round" stroke-linejoin="round" stroke-width="1.2"/>
  </g>
</svg>
