<svg xmlns="http://www.w3.org/2000/svg" width="39.571" height="31.401" viewBox="0 0 39.571 31.401">
  <g id="Group_1892" data-name="Group 1892" transform="translate(-1931.712 1176.021)">
    <path id="Path_1653" data-name="Path 1653" d="M2223.076-1001.377c-.1.421-.187.849-.316,1.262a6.048,6.048,0,0,1-1.512,2.482q-2.167,2.178-4.343,4.346a1.728,1.728,0,0,1-.138.111q-1.779-1.783-3.55-3.558a11.165,11.165,0,0,1-1.922-2.255,6.3,6.3,0,0,1,4.531-9.279,6.261,6.261,0,0,1,7.181,5.329.791.791,0,0,0,.07.171Zm-4.385-.741a1.956,1.956,0,0,0-1.931-1.95,1.964,1.964,0,0,0-1.96,1.963,1.962,1.962,0,0,0,1.933,1.949A1.956,1.956,0,0,0,2218.691-1002.118Z" transform="translate(-251.793 -151.454)" fill="#873a8e"/>
    <path id="Path_1654" data-name="Path 1654" d="M1992.134-1027.112v2.292c-.114.01-.213.026-.312.026-6.156,0-12.313.012-18.469,0a5.185,5.185,0,0,1-5.236-4.644,5.21,5.21,0,0,1,5.347-5.782q5.37-.015,10.741,0a2.89,2.89,0,0,0,2.771-1.616,2.875,2.875,0,0,0-2.2-4.13,8.128,8.128,0,0,0-.885-.052q-3.419-.006-6.839,0h-.469v-2.292c.116-.01.215-.026.314-.026,2.46,0,4.92-.011,7.38,0a5.225,5.225,0,0,1,5.217,4.143,5.184,5.184,0,0,1-4.82,6.265c-3.708.059-7.418.021-11.128.025a2.943,2.943,0,0,0-2.841,1.637,2.891,2.891,0,0,0,2.3,4.138c.231.019.463.021.695.021h18.438Z" transform="translate(-32.86 -119.83)" fill="#873a8e"/>
    <path id="Path_1655" data-name="Path 1655" d="M1938.015-1160.906q-2.3-2.279-4.607-4.562a5.218,5.218,0,0,1-.516-.623,6.29,6.29,0,0,1,4.14-9.86,6.279,6.279,0,0,1,6.55,3.3,6.214,6.214,0,0,1-1.024,7.224C1941.083-1163.888,1939.534-1162.414,1938.015-1160.906Zm1.9-8.887a1.957,1.957,0,0,0-1.922-1.959,1.954,1.954,0,0,0-1.968,1.951,1.954,1.954,0,0,0,1.959,1.959A1.959,1.959,0,0,0,1939.912-1169.794Z" fill="#873a8e"/>
  </g>
</svg>
