<svg xmlns="http://www.w3.org/2000/svg" width="21" height="21.023" viewBox="0 0 21 21.023">
  <g id="Group_4912" data-name="Group 4912" transform="translate(-51.931 -476)">
    <path id="Path_5705" data-name="Path 5705" d="M10.263,31.023h15.3a.263.263,0,0,0,.263-.263v-3.1a.866.866,0,0,1,.556.72.263.263,0,0,0,.261.235.258.258,0,0,0,.055-.006,5.556,5.556,0,0,0,1.857-.77.263.263,0,0,0,.062-.386.87.87,0,0,1,1.223-1.223.263.263,0,0,0,.386-.062,5.558,5.558,0,0,0,.77-1.857A.263.263,0,0,0,30.765,24a.87.87,0,0,1,0-1.73.263.263,0,0,0,.229-.317,5.554,5.554,0,0,0-.77-1.857.263.263,0,0,0-.386-.062.87.87,0,0,1-1.223-1.223.263.263,0,0,0-.062-.386,5.556,5.556,0,0,0-1.857-.77.263.263,0,0,0-.316.229.864.864,0,0,1-.6.733l.042-3.473c0-.006,0-.011,0-.016a.259.259,0,0,0-.013-.07.252.252,0,0,0-.009-.026.26.26,0,0,0-.044-.067l-.006-.009h0L20.87,10.077h0a.259.259,0,0,0-.074-.05l-.025-.009A.258.258,0,0,0,20.7,10c-.006,0-.011,0-.017,0H10.263a.263.263,0,0,0-.263.263v20.5A.263.263,0,0,0,10.263,31.023ZM26.841,18.23a5.021,5.021,0,0,1,1.2.5A1.4,1.4,0,0,0,29.919,20.6a5.017,5.017,0,0,1,.5,1.2,1.4,1.4,0,0,0,0,2.651,5.017,5.017,0,0,1-.5,1.2,1.4,1.4,0,0,0-1.874,1.874,5.021,5.021,0,0,1-1.2.5,1.4,1.4,0,0,0-2.65,0,5.021,5.021,0,0,1-1.2-.5,1.4,1.4,0,0,0-1.874-1.874,5.015,5.015,0,0,1-.5-1.2,1.4,1.4,0,0,0,0-2.651,5.013,5.013,0,0,1,.5-1.2,1.4,1.4,0,0,0,1.874-1.874,5.02,5.02,0,0,1,1.2-.5,1.391,1.391,0,0,0,1.32.957h.005A1.391,1.391,0,0,0,26.841,18.23ZM20.947,10.9l3.981,3.981H20.947Zm-10.421-.372h9.9V15.14a.263.263,0,0,0,.263.263H25.3l-.039,3.216a.864.864,0,0,1-.606-.735.263.263,0,0,0-.316-.229,5.553,5.553,0,0,0-1.857.77.263.263,0,0,0-.062.386.87.87,0,0,1-1.223,1.223.263.263,0,0,0-.386.062,5.55,5.55,0,0,0-.77,1.857.263.263,0,0,0,.229.317.87.87,0,0,1,0,1.73.263.263,0,0,0-.229.317,5.553,5.553,0,0,0,.77,1.857.263.263,0,0,0,.386.062.87.87,0,0,1,1.223,1.223.263.263,0,0,0,.062.386,5.553,5.553,0,0,0,1.857.77.263.263,0,0,0,.316-.229.864.864,0,0,1,.648-.747V30.5H10.526Z" transform="translate(41.931 466)" fill="#0d9247"/>
    <path id="Path_5706" data-name="Path 5706" d="M59.923,53.253a2.4,2.4,0,1,0,2.4-2.4A2.4,2.4,0,0,0,59.923,53.253Zm4.268,0a1.871,1.871,0,1,1-1.871-1.871A1.873,1.873,0,0,1,64.191,53.253Z" transform="translate(5.128 435.88)" fill="#0d9247"/>
    <path id="Path_5707" data-name="Path 5707" d="M20.324,20.1H18.27a.263.263,0,1,0,0,.526h2.055a.263.263,0,0,0,0-.526Z" transform="translate(36.029 458.553)" fill="#0d9247"/>
    <path id="Path_5708" data-name="Path 5708" d="M36.408,20.1H34.354a.263.263,0,0,0,0,.526h2.055a.263.263,0,0,0,0-.526Z" transform="translate(24.171 458.553)" fill="#0d9247"/>
    <path id="Path_5709" data-name="Path 5709" d="M20.324,28.561H18.27a.263.263,0,1,0,0,.526h2.055a.263.263,0,0,0,0-.526Z" transform="translate(36.029 452.316)" fill="#0d9247"/>
    <path id="Path_5710" data-name="Path 5710" d="M36.408,28.561H34.354a.263.263,0,0,0,0,.526h2.055a.263.263,0,0,0,0-.526Z" transform="translate(24.171 452.316)" fill="#0d9247"/>
    <path id="Path_5711" data-name="Path 5711" d="M20.324,37.022H18.27a.263.263,0,1,0,0,.526h2.055a.263.263,0,1,0,0-.526Z" transform="translate(36.029 446.079)" fill="#0d9247"/>
    <path id="Path_5712" data-name="Path 5712" d="M36.408,37.022H34.354a.263.263,0,0,0,0,.526h2.055a.263.263,0,0,0,0-.526Z" transform="translate(24.171 446.079)" fill="#0d9247"/>
    <path id="Path_5713" data-name="Path 5713" d="M20.324,45.258H18.27a.263.263,0,0,0,0,.526h2.055a.263.263,0,0,0,0-.526Z" transform="translate(36.029 440.007)" fill="#0d9247"/>
    <path id="Path_5714" data-name="Path 5714" d="M36.408,45.258H34.354a.263.263,0,0,0,0,.526h2.055a.263.263,0,0,0,0-.526Z" transform="translate(24.171 440.007)" fill="#0d9247"/>
    <path id="Path_5715" data-name="Path 5715" d="M20.324,53.493H18.27a.263.263,0,1,0,0,.526h2.055a.263.263,0,1,0,0-.526Z" transform="translate(36.029 433.936)" fill="#0d9247"/>
    <path id="Path_5716" data-name="Path 5716" d="M36.408,53.493H34.354a.263.263,0,0,0,0,.526h2.055a.263.263,0,0,0,0-.526Z" transform="translate(24.171 433.936)" fill="#0d9247"/>
    <path id="Path_5717" data-name="Path 5717" d="M20.324,61.729H18.27a.263.263,0,0,0,0,.526h2.055a.263.263,0,0,0,0-.526Z" transform="translate(36.029 427.865)" fill="#0d9247"/>
    <path id="Path_5718" data-name="Path 5718" d="M36.408,61.729H34.354a.263.263,0,0,0,0,.526h2.055a.263.263,0,0,0,0-.526Z" transform="translate(24.171 427.865)" fill="#0d9247"/>
    <path id="Path_5719" data-name="Path 5719" d="M20.324,69.965H18.27a.263.263,0,0,0,0,.526h2.055a.263.263,0,0,0,0-.526Z" transform="translate(36.029 421.793)" fill="#0d9247"/>
    <path id="Path_5720" data-name="Path 5720" d="M36.408,69.965H34.354a.263.263,0,0,0,0,.526h2.055a.263.263,0,0,0,0-.526Z" transform="translate(24.171 421.793)" fill="#0d9247"/>
    <path id="Path_5721" data-name="Path 5721" d="M20.324,78.2H18.27a.263.263,0,0,0,0,.526h2.055a.263.263,0,0,0,0-.526Z" transform="translate(36.029 415.722)" fill="#0d9247"/>
    <path id="Path_5722" data-name="Path 5722" d="M36.408,78.2H34.354a.263.263,0,0,0,0,.526h2.055a.263.263,0,0,0,0-.526Z" transform="translate(24.171 415.722)" fill="#0d9247"/>
  </g>
</svg>
